<svg xmlns="http://www.w3.org/2000/svg" viewBox="0 0 500 500"><g id="freepik--Floor--inject-31"><ellipse id="freepik--floor--inject-31" cx="250" cy="294.95" rx="239.66" ry="182.68" style="fill:#fafafa"></ellipse></g><g id="freepik--Clouds--inject-31"><path id="freepik--Cloud--inject-31" d="M338.16,50c0-3.13,3.44-5.31,7.33-5.68,4.59-.43,7.84,1.61,7.95,5.22,3-1.23,6.15-.44,5.92,2.86.78-.9,3.69-.88,4.74-.63A4.12,4.12,0,0,1,366.71,54a3,3,0,0,1,.27,1.69c1.75-.58,5.73-.93,6.72.68,1.77,2.85-5.3,2.94-6.72,2.08-.31,2.22-7.9,2.58-9.74.53-1.44,1.45-3.5,1.77-5.73,1.9-3.76.23-6.06-1.05-9-2.54-3.19,2.7-8.71,2.75-11.58-.34-.73.69-2.75.9-4.37.52-1.06-.26-1.3-.71-1.3-.71a9.7,9.7,0,0,1-1.95.59c-2.09.43-6,0-4.34-1.91a4.94,4.94,0,0,1,3.44-.84c.91-1.79,4.56-3.48,6.66-2,.08-2.17,2.06-3.86,4.84-4.29C334.86,49.24,337.1,49.12,338.16,50Z" style="fill:#f5f5f5"></path><path id="freepik--cloud--inject-31" d="M77.71,65c0-4.24,4.65-7.18,9.92-7.68,6.2-.58,10.6,2.18,10.74,7.06,4.06-1.66,8.33-.59,8,3.87,1.06-1.22,5-1.19,6.42-.85a5.54,5.54,0,0,1,3.53,3,4,4,0,0,1,.37,2.28c2.37-.77,7.74-1.24,9.09.92,2.39,3.87-7.17,4-9.1,2.82-.41,3-10.68,3.5-13.17.72-2,2-4.74,2.39-7.75,2.57-5.09.31-8.2-1.42-12.17-3.44-4.31,3.65-11.77,3.72-15.66-.46-1,.93-3.72,1.22-5.91.7-1.43-.34-1.77-1-1.77-1a12.88,12.88,0,0,1-2.63.79c-2.82.59-8.07,0-5.87-2.57.75-.87,3.5-1.41,4.66-1.15,1.23-2.42,6.16-4.71,9-2.66C65.53,67,68.21,64.7,72,64.12,73.24,63.93,76.27,63.76,77.71,65Z" style="fill:#f0f0f0"></path><path id="freepik--cloud--inject-31" d="M385.52,87.61a8.4,8.4,0,0,1,2.88-.53c.93-.07,1.22-.26,1.4-.46a6.88,6.88,0,0,1,8.25-2.44,5.26,5.26,0,0,1,6.21-3.51c-.1-2.9,3.6-6,6.92-6.72s6-.39,7.79,1.7c1.95-3.8,9.58-4.87,13.71-2.86,2.38,1.16,4.39,2.34,5.38,4.52a9.08,9.08,0,0,1,.89,4.33c1.61-1.42,4.84-1.8,7-1,2.32.89,2.49,2.64,2.61,4.42a8.24,8.24,0,0,1,4.22-.08c1.46.44,2.3,1.58,2.1,2.51,1.15-.07,3.91.87,3.59,2.09-.36,1.37-3.5,1.23-4.67,1.19a22.39,22.39,0,0,1-3.29-.52,5.09,5.09,0,0,1-1.71.33c-2,0-2.85-.88-3.17-1.62-1,2.06-4.46,3.62-6.91,4.25-4.63,1.19-11.18.46-14-3a5.08,5.08,0,0,1-1.38,1.67A7.93,7.93,0,0,1,419,93.66c-1.9.18-7,.42-8.44-2.6-1,2-5.56,2.92-9,2.43a14.13,14.13,0,0,1-3.87-1.16A24.61,24.61,0,0,1,395.48,91a1.86,1.86,0,0,0-1.9-.13,11.28,11.28,0,0,1-7.54,0C384.11,90.05,383.71,88.43,385.52,87.61Z" style="fill:#ebebeb"></path></g><g id="freepik--Plants--inject-31"><g id="freepik--plants--inject-31"><g id="freepik--plants--inject-31"><path d="M57.22,227.09a5,5,0,0,0,.2-5.37c-1.23-2.31-3.49-4-3.8-3.91s-1.1,2.73,0,5.6A5.91,5.91,0,0,0,57.22,227.09Z" style="fill:#407BFF"></path><path d="M55.93,233.46a5,5,0,0,0-2.27-4.87c-2.15-1.49-4.92-1.93-5.17-1.74s.27,2.93,2.55,5A5.9,5.9,0,0,0,55.93,233.46Z" style="fill:#407BFF"></path><path d="M60.13,238a5,5,0,0,0,4.4-3.08c1.1-2.38,1.21-4.94,1-5.15s-3.15.83-4.76,3.06A5.3,5.3,0,0,0,60.13,238Z" style="fill:#407BFF"></path><path d="M57.89,237.68a52.63,52.63,0,0,1-.41,6.12c.34.07.67.15,1,.21h.1a51.34,51.34,0,0,0-.31-12.87,27.42,27.42,0,0,0-2.38-8.48c0-.06-.17,0-.16.05a40.3,40.3,0,0,1,1.6,7.83A48.7,48.7,0,0,1,57.89,237.68Z" style="fill:#37474f"></path><path d="M58.85,239.72a15.55,15.55,0,0,0,2.37-2.56,8.93,8.93,0,0,0,1.55-2.94c0-.15-.15,0-.2.08a27.31,27.31,0,0,1-1.73,2.42,11.22,11.22,0,0,1-2.32,2.14.69.69,0,0,0-.26.76A.36.36,0,0,0,58.85,239.72Z" style="fill:#37474f"></path><path d="M58.75,237.48a13,13,0,0,0-2.5-4.27,15.24,15.24,0,0,0-1.54-1.67,8.54,8.54,0,0,0-2.2-1.54s-.25,0-.2,0a24.28,24.28,0,0,1,1.94,1.78,14.12,14.12,0,0,1,1.54,1.83,21.05,21.05,0,0,1,2.37,4.15C58.3,238.08,58.84,237.75,58.75,237.48Z" style="fill:#37474f"></path></g></g><g id="freepik--plants--inject-31"><g id="freepik--plants--inject-31"><path d="M461.22,210.78a5.05,5.05,0,0,1-.2-5.37c1.23-2.31,3.5-4,3.81-3.91s1.09,2.73,0,5.59A5.86,5.86,0,0,1,461.22,210.78Z" style="fill:#407BFF"></path><path d="M462.52,217.15a5,5,0,0,1,2.26-4.87c2.15-1.49,4.92-1.93,5.17-1.74s-.27,2.93-2.55,5A5.87,5.87,0,0,1,462.52,217.15Z" style="fill:#407BFF"></path><path d="M458.31,221.71a5,5,0,0,1-4.4-3.07c-1.09-2.38-1.21-4.94-1-5.15s3.15.83,4.76,3.06A5.28,5.28,0,0,1,458.31,221.71Z" style="fill:#407BFF"></path><path d="M460.56,221.37a50.73,50.73,0,0,0,.4,6.12l-1,.2-.1,0a51.8,51.8,0,0,1,.31-12.87,27.7,27.7,0,0,1,2.38-8.48c0-.06.18,0,.16,0a41.37,41.37,0,0,0-1.6,7.83A48.88,48.88,0,0,0,460.56,221.37Z" style="fill:#37474f"></path><path d="M459.59,223.41a15.07,15.07,0,0,1-2.36-2.56,8.57,8.57,0,0,1-1.55-2.94c0-.15.14,0,.2.07a26,26,0,0,0,1.72,2.43,11.22,11.22,0,0,0,2.32,2.14.69.69,0,0,1,.26.76A.36.36,0,0,1,459.59,223.41Z" style="fill:#37474f"></path><path d="M459.69,221.16a12.92,12.92,0,0,1,2.5-4.26,15.24,15.24,0,0,1,1.54-1.67,9,9,0,0,1,2.2-1.55s.25,0,.2,0c-.57.46-1.38,1.22-1.94,1.79a14,14,0,0,0-1.53,1.83,21.35,21.35,0,0,0-2.38,4.14C460.15,221.77,459.6,221.44,459.69,221.16Z" style="fill:#37474f"></path></g></g><g id="freepik--plants--inject-31"><g id="freepik--plants--inject-31"><path d="M276.55,411a6.44,6.44,0,0,1-.26-6.89c1.58-3,4.49-5.09,4.89-5s1.41,3.51,0,7.19A7.54,7.54,0,0,1,276.55,411Z" style="fill:#407BFF"></path><path d="M278.21,419.23a6.45,6.45,0,0,1,2.91-6.25c2.76-1.92,6.32-2.48,6.64-2.24s-.34,3.76-3.28,6.39A7.58,7.58,0,0,1,278.21,419.23Z" style="fill:#407BFF"></path><path d="M272.81,425.09a6.45,6.45,0,0,1-5.65-3.95c-1.41-3.05-1.55-6.34-1.26-6.62s4,1.08,6.12,3.94C274.27,421.59,273,424.14,272.81,425.09Z" style="fill:#407BFF"></path><path d="M275.69,424.65a70.69,70.69,0,0,0,.52,7.86c-.43.09-.86.19-1.31.26l-.13,0a66.18,66.18,0,0,1,.41-16.52,35.48,35.48,0,0,1,3.05-10.9c0-.07.23,0,.2.06a53.39,53.39,0,0,0-2.05,10.06A63.12,63.12,0,0,0,275.69,424.65Z" style="fill:#37474f"></path><path d="M274.45,427.27a19.31,19.31,0,0,1-3-3.29,11.16,11.16,0,0,1-2-3.78c-.05-.19.19,0,.25.1a36,36,0,0,0,2.22,3.12,15,15,0,0,0,3,2.75.91.91,0,0,1,.34,1A.48.48,0,0,1,274.45,427.27Z" style="fill:#37474f"></path><path d="M274.58,424.39a16.61,16.61,0,0,1,3.22-5.48,18.27,18.27,0,0,1,2-2.15,11.35,11.35,0,0,1,2.82-2c.05,0,.33,0,.26,0a30.53,30.53,0,0,0-2.48,2.28,18.09,18.09,0,0,0-2,2.36,27.83,27.83,0,0,0-3.05,5.32C275.17,425.16,274.47,424.74,274.58,424.39Z" style="fill:#37474f"></path></g></g></g><g id="freepik--Roads--inject-31"><path id="freepik--Road--inject-31" d="M26.14,360.28A162,162,0,0,0,36,377.19L170.76,455,234,418.49l-155-88.76Z" style="fill:#f0f0f0"></path><path id="freepik--road--inject-31" d="M100.14,152.4l170.17,98.24,63.27-36.53L173,121.91A268.68,268.68,0,0,0,100.14,152.4Z" style="fill:#f0f0f0"></path><g id="freepik--road--inject-31"><polygon points="349.49 412.81 57.02 243.95 134.2 199.39 426.67 368.25 349.49 412.81" style="fill:#407BFF"></polygon><polygon points="349.49 412.81 57.02 243.95 134.2 199.39 426.67 368.25 349.49 412.81" style="fill:#fff;opacity:0.75"></polygon></g></g><g id="freepik--character-3--inject-31"><g id="freepik--Character--inject-31"><g id="freepik--Bottom--inject-31"><path d="M161.53,167.85a13.25,13.25,0,0,1-.3-4.33,25,25,0,0,0,.16-6.11c-.19-1.09-.56-2.14-.81-3.22a6.05,6.05,0,0,1,0-3.27c.59-1.8,2.3-2.27,3.87-2.87a9.91,9.91,0,0,0,3.59-1.78c1.26-1.08,5.63-7.7,5.63-7.7l6.45,9.4s-6.25,5-7.78,7a11.66,11.66,0,0,0-2.1,3.39A11.38,11.38,0,0,0,170,162a8.31,8.31,0,0,0,.55,2.56c.42.85,1.48,1.49,2.08,2.23a7,7,0,0,1,1.46,2.84,1.36,1.36,0,0,1-.43,1.47c-.23.18-.52.26-.75.44a6.92,6.92,0,0,1-.78.63,6.73,6.73,0,0,1-2.57.65,9,9,0,0,1-4.92-.93A6.22,6.22,0,0,1,161.53,167.85Z" style="fill:#ffbda7"></path><path d="M160.68,148.73c-1.83.3-2.18,1.76-2.36,3.34s1,4.19,1.39,5.58a5.81,5.81,0,0,1,.16,4.25c-.58,2.39-.88,6.43.41,8.94s3.49,4,7.45,4,6.28-1.09,6.72-1.94a6.67,6.67,0,0,0,.13-3.71c-.26-.55-5.53-4.19-7.13-6.78S160.68,148.73,160.68,148.73Z" style="fill:#263238"></path><path d="M168.36,145.91c-.38-.34-.66-.34-1.57.2a11,11,0,0,1-2.62,1.08c-1.6.5-4.06.63-4.58,3.92s1.42,6.3,1.31,8.26c-.08,1.52-1.79,6.45.1,10.21s5.08,3.73,7.86,3.76,6-1.21,6-2.46a6.61,6.61,0,0,0-3.1-5.64c-2-1.33-1.1-6.81-.89-7.46a5.14,5.14,0,0,1,1.62-2.41c.9-.92,1.21-1.16-.54-1.73-1.54-.5-4.71-1.58-6.15.48,0,0,1.26-2.22,1.12-3.14s-.76-3,.37-4.18A3.64,3.64,0,0,0,168.36,145.91Z" style="fill:#37474f"></path><path d="M161.25,170.23c.49-2.24,3.44-4.22,6.25-4.8s4-.52,5,0a5.59,5.59,0,0,1,2.47,5.77C173.37,173.76,163.82,175.12,161.25,170.23Z" style="fill:#fafafa"></path><path d="M190.93,111.91s-2.17-5-1.51-9.35,4.07-14.23,4.07-14.23l24,6.34c-1.16,7.87-3.61,13.32-5.39,19.51-2.27,7.19-3.28,9.81-5.61,12.89s-4.75,5.66-13.67,12.13c-8,5.81-14.86,10.74-14.86,10.74s-2.56.1-4.85-3.62a12.88,12.88,0,0,1-1.47-5.12s7.65-11.88,11.41-15.39a55.13,55.13,0,0,1,6.65-5.47Z" style="fill:#263238"></path><path d="M203.67,199.16a17.32,17.32,0,0,0,2.38.17,5.48,5.48,0,0,0,1.62-.16,6.22,6.22,0,0,0,1.93-1.07,3,3,0,0,0,1.18-1.31,2.28,2.28,0,0,0-.52-2.15,9.88,9.88,0,0,0-1.74-1.47l-.06,0a23.68,23.68,0,0,1-5.34-6.47c-1.38-2.28-2.78-4.81-2.83-7.56s.72-16.13,2.22-28.57a91.41,91.41,0,0,0,.81-12.48c0-.43-1.34-15.85-3.13-30.42a50.11,50.11,0,0,0,8.73-6.08c4.9-4.74,6.62-6.7,6.62-6.7L189,85.14a82.45,82.45,0,0,0-5.74,7.78c-2.13,3.55-2.72,7.48-2.23,13.16.44,5.13,2.27,12,3.23,15.94,2,8.21,2.82,13.09,3.62,17.75a56.16,56.16,0,0,0,0,16.48c.6,4.54,2.42,16.65,2.59,21.46,0,0-.07,1-.39,3.77-.15,1.31-1.63,4.49.24,5.91a11.13,11.13,0,0,0,1.11,1c.49.28,1,.59,1.44.92a6.64,6.64,0,0,1,1.25,1.12,9,9,0,0,1,1,1.75,13.34,13.34,0,0,0,4.38,5.52A10.42,10.42,0,0,0,203.67,199.16Z" style="fill:#ffbda7"></path><path d="M188.92,186.41a3,3,0,0,0,.86,2.47,19.35,19.35,0,0,0,3.53,2.31,6.09,6.09,0,0,1,2.46,3,8.15,8.15,0,0,0,5.47,5.5,12.41,12.41,0,0,0,8.87-.06c1.51-.55,2.43-1.42,2.34-2.89S188.92,186.41,188.92,186.41Z" style="fill:#263238"></path><path d="M191.3,179.46c-.74-.39-.65-.89-.8-1.21l0-.54c-.5,0-.57,1.56-1.18,3.4a10.63,10.63,0,0,0-.38,5.3c1,2.05,4,2.47,5.62,4.44s1.7,5.69,7,7.42c4.76,1.56,9.47-.29,10.92-1.56,0,0,.63-3.38-1.52-4.34a11.56,11.56,0,0,1-5.09-4.08,47.76,47.76,0,0,1-4.2-7.08c-.38-1-.41-3-1.11-3.05a37.07,37.07,0,0,0-6.51,1.58c-1.05.42-.23,2.59-.23,2.59a4.7,4.7,0,0,1-1-1.5C192.33,179.8,192,179.79,191.3,179.46Z" style="fill:#37474f"></path><path d="M199.36,197.3c.12-2.4,1.35-4.35,4.15-5.72a7.89,7.89,0,0,1,5.42-.59c1,.43,3.25,1.32,3.52,3a7.45,7.45,0,0,1,0,2.74s-2.18,2.31-7,2.24C201.22,198.88,199.36,197.3,199.36,197.3Z" style="fill:#fafafa"></path><path d="M187.46,139.86c-1.61,7.75.43,18,1.25,23.21.43,2.74,1.39,9.58,1.39,9.58s.45,1.51,4.76,1.86,5.9-1.08,5.9-1.08,1.84-18,2.43-26.38a75.75,75.75,0,0,0,.06-13c-.17-3.63-.31-24.78-.31-24.78s12-1.43,13.91-11.23L185.9,83.48c-.74,2.57-2.88,6.78-4,9.85a34.1,34.1,0,0,0-2.3,12.15c.07,3.54.79,6.65,2,11.91S186.31,137.14,187.46,139.86Z" style="fill:#37474f"></path></g><g id="freepik--Top--inject-31"><g id="freepik--Arm--inject-31"><path d="M214.53,53.7C211.58,56,210,59.47,213.62,65A172.15,172.15,0,0,0,226,81.25c2.09,2.33,2.34,3,6.49,4.12,4.49,1.22,20.18,2.61,21.44,2.76a5.49,5.49,0,0,0,3.24-1,7.72,7.72,0,0,0,2-1.66c.76-.85.52-2.08.61-3.11.18-1.87.41-3.73.56-5.59.07-.85.38-1.79-.07-2.58-.1-.16-.33-.35-.49-.32,0,0,.06-.8.1-1.16.07-.66.08-1.91-.69-2.21s-1.25,1.24-1.25,1.24a5.19,5.19,0,0,0,.35-2.15c-.23-.9-.9-1.48-1.42-1a4,4,0,0,0-.82,1.25,1,1,0,0,0-.89,0,3.5,3.5,0,0,0-1.49,2,14.19,14.19,0,0,0-.79,2.85,12.47,12.47,0,0,1-.64,2.92,3.13,3.13,0,0,1-1.27,1.51,2.55,2.55,0,0,1-2,.09c-1.1-.22-2.18-.55-3.26-.88-2.67-.82-5.32-1.76-7.95-2.71l-2.95-1.09s-6.71-10.2-9.37-14C223.46,57.91,220.18,52.76,214.53,53.7Z" style="fill:#ffbda7"></path><path d="M219.94,54.3c2.68,1.19,4.92,4.38,7.06,7.61s5.64,8.79,5.64,8.79a49.33,49.33,0,0,1-5.36,5.51,15.63,15.63,0,0,1-4,2.36l-8.07-10.22Z" style="fill:#37474f"></path><path d="M259.72,82.38,260.1,78c.06-.73.12-1.47.23-2.2a3.19,3.19,0,0,0,0-1.07,1.67,1.67,0,0,0-.2-.47.54.54,0,0,0-.37-.24.1.1,0,0,1-.11-.08v0a6.94,6.94,0,0,0,0-2.69c-.14-.39-.55-.76-.87-.46A3,3,0,0,0,258,71.8a.12.12,0,0,1-.23-.08,6.71,6.71,0,0,0,.37-1.38,1.77,1.77,0,0,0-.26-1.32,1.13,1.13,0,0,0-.47-.45.52.52,0,0,0-.56.15,3.91,3.91,0,0,0-.78,1.18.08.08,0,0,1-.11,0h0a1.3,1.3,0,0,0-1.35.43,4.37,4.37,0,0,0-.82,1.36,14.53,14.53,0,0,0-1,3.09,14.2,14.2,0,0,1,.84-3.13,4.34,4.34,0,0,1,.83-1.42A1.42,1.42,0,0,1,256,69.8l-.12,0a4.11,4.11,0,0,1,.8-1.25.71.71,0,0,1,.76-.2,1.31,1.31,0,0,1,.57.52,2,2,0,0,1,.31,1.46A7.88,7.88,0,0,1,258,71.8l-.22-.09a3,3,0,0,1,.81-1.18.63.63,0,0,1,.77,0,1.29,1.29,0,0,1,.45.61,3.38,3.38,0,0,1,.14,1.41l-.13,1.38-.11-.11c.52,0,.68.51.77.86a3.31,3.31,0,0,1,0,1.13c-.12.73-.19,1.46-.27,2.2Z" style="fill:#f0997a"></path><path d="M256.05,69.76a1,1,0,0,1,.44,1,3.77,3.77,0,0,1-.2,1,14.79,14.79,0,0,0-.59,1.93,16.92,16.92,0,0,0-.35,2l-.19,2,.13-2a17.38,17.38,0,0,1,.29-2,14.39,14.39,0,0,1,.53-2,3.64,3.64,0,0,0,.16-1,.81.81,0,0,0-.34-.76Z" style="fill:#f0997a"></path><path d="M258,71.78c-.2.92-.35,1.86-.48,2.8s-.26,1.88-.3,2.83c0-1,.08-1.9.17-2.85s.2-1.89.36-2.83Z" style="fill:#f0997a"></path><path d="M256.52,81.45a4,4,0,0,0-2.19-1.38c-.06,0,0,.1,0,.11a4.43,4.43,0,0,1,1.82,1.41,6.18,6.18,0,0,1,1,2,6.94,6.94,0,0,0,.22.78.16.16,0,0,0,.09-.16,10.22,10.22,0,0,0-.21-1.57A3.2,3.2,0,0,0,256.52,81.45Z" style="fill:#f0997a"></path><path d="M259.84,73.91a33.85,33.85,0,0,0-.63,3.43,34.27,34.27,0,0,1,.38-3.48Z" style="fill:#f0997a"></path><path d="M252.18,76.73c-.26-1.63-1.31-2.25-1.91-1.88s-.15,2.3-.26,3.59-.94,7.37,1.89,8.52L253,80.08C252.58,79.69,252.38,78,252.18,76.73Z" style="fill:#ffbda7"></path><path d="M253,80.08a2.48,2.48,0,0,1-.49-1.11c-.11-.39-.18-.79-.26-1.19a5.47,5.47,0,0,0-.64-2.29,1.37,1.37,0,0,0-.91-.64.61.61,0,0,0-.48.14.94.94,0,0,0-.17.51c-.07.79.07,1.6.08,2.43a34.45,34.45,0,0,0-.22,4.86,8.59,8.59,0,0,0,.46,2.36A2.94,2.94,0,0,0,251.9,87a3,3,0,0,1-1.62-1.77,8.49,8.49,0,0,1-.5-2.39,34.29,34.29,0,0,1,.13-4.87c0-.81-.12-1.61,0-2.45a1.17,1.17,0,0,1,.24-.62.78.78,0,0,1,.64-.2,1.53,1.53,0,0,1,1,.73C252.65,76.87,252.16,78.67,253,80.08Z" style="fill:#f0997a"></path></g><g id="freepik--top--inject-31"><g id="freepik--Chest--inject-31"><path id="freepik--chest--inject-31" d="M204.77,52.9a80.46,80.46,0,0,0-11.37,2.49,16.13,16.13,0,0,0-5.33,10.93c-.2,2.27-.23,8.73-1.68,14.53a63.29,63.29,0,0,1-3.26,9s.84,7.38,17.32,12.22c10.84,3.18,14.74-.52,14.74-.52S222.7,83,223.68,74.08c1.07-9.79.27-17.38-3.74-19.78a31.68,31.68,0,0,0-6-1.16Z" style="fill:#455a64"></path></g><g id="freepik--Head--inject-31"><path d="M204.92,28.65a4,4,0,0,0-3.25,2c-.74,1.05-1.43,3-.62,9.11A23.74,23.74,0,0,0,203,46.57a2.9,2.9,0,0,0,1.5,1.57l.49-4.52.26-3.15s2.84-2,3.36-4.18a7.29,7.29,0,0,0-.24-4.66Z" style="fill:#37474f"></path><path d="M204.29,28.72c.78-2.47,4.4-5.06,10.63-4.56,5.11.42,7.84,2.56,9.21,5.76s-.31,6.87-.31,6.87L208,33.6Z" style="fill:#37474f"></path><path d="M200.69,44.39a2.48,2.48,0,0,0,3.5-.26l-1,10.16c3.67,6.59,15.94,5.79,11.65.64l.36-2.84a18.21,18.21,0,0,0,2.05,0,5.43,5.43,0,0,0,4.92-3.42c1.35-3.19,2-8.51,1.54-14.31a3.86,3.86,0,0,0-1.33-3c-2.32-1.56-4.85-.11-8.48.77-1.51.37-5,.15-5.86-.41,1,1.5-.14,4.85-.61,5.89-.67,1.51-1.44,2.19-1.77,2.22-1.46.1-1.46-1.13-2-1.88a2.62,2.62,0,0,0-4.17.38A4.27,4.27,0,0,0,200.69,44.39Z" style="fill:#ffbda7"></path><path d="M206.73,48.23c.18,2.35,3.07,4.27,8.3,5.1l.16-1.24a24.91,24.91,0,0,1-3.8-.87A13.7,13.7,0,0,1,206.73,48.23Z" style="fill:#f0997a"></path><path d="M213.39,35.54l-2.21,1.19a1.32,1.32,0,0,1,.53-1.75A1.24,1.24,0,0,1,213.39,35.54Z" style="fill:#37474f"></path><path d="M222.49,36.78l-2.16-1.3A1.21,1.21,0,0,1,222,35,1.33,1.33,0,0,1,222.49,36.78Z" style="fill:#37474f"></path><path d="M212.35,38.83a1,1,0,0,0,.91,1.11,1,1,0,1,0,.2-2A1,1,0,0,0,212.35,38.83Z" style="fill:#263238"></path><path d="M214.16,45.77a.76.76,0,1,0,.83-.69A.76.76,0,0,0,214.16,45.77Z" style="fill:#b16668"></path><path d="M219.7,38.7a1,1,0,1,0,1.12-.92A.94.94,0,0,0,219.7,38.7Z" style="fill:#263238"></path><path d="M216.81,36.8l.23,6.67,3.7-.9A13.51,13.51,0,0,0,216.81,36.8Z" style="fill:#f0997a"></path></g></g><g id="freepik--arm--inject-31"><path d="M193.76,56.16c-3.58,1-6.94,4.46-5.55,10.9a172.19,172.19,0,0,0,5.59,19.63c1.11,2.94,1.1,3.64,4.56,6.19,3.75,2.77,17.87,9.75,19,10.34s2.45.46,4.65,0,3-1.93,4.46-3.14,3.62-2.37,3.19-3-1.53-.9-3.31-.11-2.13,1.24-.67-1.57a23.89,23.89,0,0,1,2.91-4.38c.7-1.09.54-1.92,0-2.38s-1.62.69-1.62.69a5.09,5.09,0,0,0,1.11-1.88c.11-.91-.3-1.7-1-1.43a4,4,0,0,0-1.21.87c-.28-.35-1.46-.65-2.76.89,0,0-.44-1-2.33.48-1.55,1.19-3,4-3.7,5.35-.54,1-12.76-10-12.76-10L200,67.68S198,57.31,193.76,56.16Z" style="fill:#ffbda7"></path><path d="M193.4,55.39c-4.25,1.26-6.11,3.71-6,8.82s4.35,17.66,4.35,17.66a13.85,13.85,0,0,0,6.49,0,10,10,0,0,0,5.4-3.53s-2.93-11.82-3.47-13.58S198.2,56.25,193.4,55.39Z" style="fill:#37474f"></path><path d="M225.67,95.48a22.38,22.38,0,0,1,1.19-2.14,18.51,18.51,0,0,1,1.44-2,2.25,2.25,0,0,0,.56-2.17,1.27,1.27,0,0,0-.34-.44.53.53,0,0,0-.5,0,3.39,3.39,0,0,0-1,.7.1.1,0,0,1-.14-.14,7.84,7.84,0,0,0,.82-1.16,1.75,1.75,0,0,0,.22-1.32c-.06-.45-.41-.85-.82-.62A3.79,3.79,0,0,0,226,87a.12.12,0,0,1-.17,0h0a.86.86,0,0,0-.64-.24,1.84,1.84,0,0,0-.73.16,3.63,3.63,0,0,0-1.21,1,.1.1,0,0,1-.14,0l0,0h0a.76.76,0,0,0-.92-.2,3.55,3.55,0,0,0-1,.5,6.94,6.94,0,0,0-1.61,1.59,32.52,32.52,0,0,0-2.42,3.9,27.29,27.29,0,0,1,2.31-4,7.2,7.2,0,0,1,1.62-1.64,4,4,0,0,1,1-.55,1,1,0,0,1,1.15.3l-.16,0a3.75,3.75,0,0,1,1.27-1,2,2,0,0,1,.83-.19,1.1,1.1,0,0,1,.82.31h-.18a3.92,3.92,0,0,1,1.21-.88.7.7,0,0,1,.8.1,1.29,1.29,0,0,1,.35.71,2,2,0,0,1-.26,1.47,7.26,7.26,0,0,1-.87,1.19l-.14-.14a3.48,3.48,0,0,1,1-.73.72.72,0,0,1,.67,0,1.26,1.26,0,0,1,.4.52,2.41,2.41,0,0,1-.6,2.33c-.52.64-1,1.26-1.48,1.94A21.06,21.06,0,0,0,225.67,95.48Z" style="fill:#f0997a"></path><path d="M223.29,87.81a1.81,1.81,0,0,1-.33,1.64,3.56,3.56,0,0,1-.56.6,3.77,3.77,0,0,0-.47.64,26,26,0,0,0-1.47,2.88,27.1,27.1,0,0,1,1.36-2.95,3.93,3.93,0,0,1,.47-.68,3.24,3.24,0,0,0,.52-.6,1.59,1.59,0,0,0,.25-1.43Z" style="fill:#f0997a"></path><path d="M226,86.88a1,1,0,0,1,0,1.08,4,4,0,0,1-.55.88,13.66,13.66,0,0,0-1.25,1.59,19.71,19.71,0,0,0-1.05,1.72l-.9,1.8.85-1.83a19,19,0,0,1,1-1.76,15,15,0,0,1,1.2-1.64,3.59,3.59,0,0,0,.5-.84.79.79,0,0,0,0-.83Z" style="fill:#f0997a"></path><path d="M227.11,89.48c-.52.78-1,1.6-1.47,2.43s-.91,1.66-1.3,2.53c.35-.89.77-1.74,1.19-2.59s.87-1.69,1.36-2.51Z" style="fill:#f0997a"></path><path d="M226.34,97.05c-1.15.51-1.7.88-1.55.31h0c-.5,1.23-.42,1.72.05,1.26a16.38,16.38,0,0,1,1.41-1.31,4.92,4.92,0,0,1,1.37-.7A7.52,7.52,0,0,0,226.34,97.05Z" style="fill:#f0997a"></path><path d="M221.72,98.37a4,4,0,0,0-1.55-2.08s-.07.08,0,.11a4.44,4.44,0,0,1,1.19,2,8.41,8.41,0,0,1,.21,1.22,4.08,4.08,0,0,1,0,.78,2.81,2.81,0,0,0,0,.49s0,0,0,0a1.16,1.16,0,0,0,.21-.5,3.56,3.56,0,0,0,.14-.63A3.25,3.25,0,0,0,221.72,98.37Z" style="fill:#f0997a"></path><path d="M213,91.13h0s3,5.14,3.25,4.92a24.3,24.3,0,0,0,.85-2.35C216.94,94.06,215.19,92.83,213,91.13Z" style="fill:#f0997a"></path></g></g></g></g><g id="freepik--cube-2--inject-31"><g id="freepik--Box--inject-31"><polygon points="207.04 214.11 270.31 250.64 270.31 146.82 207.04 110.29 207.04 214.11" style="fill:#e0e0e0"></polygon><polygon points="333.58 214.11 270.31 250.64 270.31 146.82 333.58 110.29 333.58 214.11" style="fill:#f0f0f0"></polygon><polygon points="333.58 110.29 270.31 73.76 207.04 110.29 270.31 146.82 333.58 110.29" style="fill:#fafafa"></polygon></g></g><g id="freepik--symbols-2--inject-31"><g id="freepik--exclamation-sign--inject-31"><path d="M229.93,37.08a.63.63,0,0,1,.34-.3.58.58,0,0,1,.45,0L233.21,38a.58.58,0,0,1,.29.34.54.54,0,0,1,0,.45l-1,2a.56.56,0,0,1-.34.3.54.54,0,0,1-.45,0l-2.49-1.22a.61.61,0,0,1-.27-.79Zm5.28-10.74a.55.55,0,0,1,.34-.29.54.54,0,0,1,.45,0l2.48,1.22a.56.56,0,0,1,.3.34.54.54,0,0,1,0,.45l-4.18,8.5a.55.55,0,0,1-.34.29.54.54,0,0,1-.45,0l-2.48-1.22a.56.56,0,0,1-.3-.34.54.54,0,0,1,0-.45Z" style="fill:#407BFF"></path><g style="opacity:0.5"><path d="M229.93,37.08a.63.63,0,0,1,.34-.3.58.58,0,0,1,.45,0L233.21,38a.58.58,0,0,1,.29.34.54.54,0,0,1,0,.45l-1,2a.56.56,0,0,1-.34.3.54.54,0,0,1-.45,0l-2.49-1.22a.61.61,0,0,1-.27-.79Zm5.28-10.74a.55.55,0,0,1,.34-.29.54.54,0,0,1,.45,0l2.48,1.22a.56.56,0,0,1,.3.34.54.54,0,0,1,0,.45l-4.18,8.5a.55.55,0,0,1-.34.29.54.54,0,0,1-.45,0l-2.48-1.22a.56.56,0,0,1-.3-.34.54.54,0,0,1,0-.45Z" style="fill:#fff"></path></g><path d="M235.37,43.08a.54.54,0,0,1,.42-.18.56.56,0,0,1,.42.16l2,1.9a.58.58,0,0,1,.18.41.6.6,0,0,1-.16.43l-1.53,1.61a.6.6,0,0,1-.41.18.57.57,0,0,1-.42-.16l-2-1.91a.52.52,0,0,1-.18-.41.53.53,0,0,1,.16-.42Zm8.24-8.68a.54.54,0,0,1,.41-.18.56.56,0,0,1,.43.15l2,1.91a.54.54,0,0,1,.18.41.56.56,0,0,1-.15.43L240,44a.54.54,0,0,1-.41.18.53.53,0,0,1-.43-.16l-2-1.9a.54.54,0,0,1-.18-.41.53.53,0,0,1,.16-.43Z" style="fill:#407BFF"></path><g style="opacity:0.2"><path d="M235.37,43.08a.54.54,0,0,1,.42-.18.56.56,0,0,1,.42.16l2,1.9a.58.58,0,0,1,.18.41.6.6,0,0,1-.16.43l-1.53,1.61a.6.6,0,0,1-.41.18.57.57,0,0,1-.42-.16l-2-1.91a.52.52,0,0,1-.18-.41.53.53,0,0,1,.16-.42Zm8.24-8.68a.54.54,0,0,1,.41-.18.56.56,0,0,1,.43.15l2,1.91a.54.54,0,0,1,.18.41.56.56,0,0,1-.15.43L240,44a.54.54,0,0,1-.41.18.53.53,0,0,1-.43-.16l-2-1.9a.54.54,0,0,1-.18-.41.53.53,0,0,1,.16-.43Z" style="fill:#fff"></path></g></g></g><g id="freepik--character-2--inject-31"><g id="freepik--character--inject-31"><g id="freepik--bottom--inject-31"><path d="M60.23,365.65a12.71,12.71,0,0,1-.13-4.23,23.89,23.89,0,0,0,.4-5.95c-.14-1.07-.48-2.11-.69-3.17a6,6,0,0,1,.11-3.19c.67-1.73,2.4-2.13,4-2.65a9.89,9.89,0,0,0,3.65-1.59c1.3-1,5.93-7.3,5.93-7.3L79.57,347s-6.45,4.64-8,6.5a11.48,11.48,0,0,0-2.23,3.22,10.57,10.57,0,0,0-.39,3.58,7.68,7.68,0,0,0,.44,2.52c.39.85,1.42,1.51,2,2.25a6.77,6.77,0,0,1,1.35,2.82,1.29,1.29,0,0,1-.49,1.42c-.23.17-.53.24-.76.4a6.63,6.63,0,0,1-.81.58,6.79,6.79,0,0,1-2.59.54,9.07,9.07,0,0,1-4.88-1.1A6,6,0,0,1,60.23,365.65Z" style="fill:#b16668"></path><path d="M60.13,347c-1.84.22-2.24,1.63-2.49,3.17s.8,4.12,1.17,5.49a5.52,5.52,0,0,1,0,4.15c-.68,2.3-1.14,6.23.06,8.72s3.32,4.07,7.28,4.21,6.31-.83,6.79-1.63a6.46,6.46,0,0,0,.28-3.61c-.24-.55-5.37-4.3-6.86-6.88S60.13,347,60.13,347Z" style="fill:#263238"></path><path d="M67.91,344.53c-.36-.35-.64-.36-1.57.13a10.91,10.91,0,0,1-2.66,1c-1.62.42-4.08.46-4.73,3.64s1.17,6.2,1,8.1c-.14,1.48-2,6.21-.3,10s4.93,3.82,7.71,4,6-1,6.14-2.17a6.4,6.4,0,0,0-2.88-5.62c-2-1.37-.82-6.68-.59-7.31a5,5,0,0,1,1.71-2.28c.93-.87,1.25-1.09-.47-1.71-1.52-.55-4.65-1.72-6.16.23,0,0,1.34-2.11,1.23-3s-.64-2.92.54-4.07A3.4,3.4,0,0,0,67.91,344.53Z" style="fill:#37474f"></path><path d="M59.86,368c.58-2.17,3.6-4,6.43-4.44s4-.36,5,.22a5.41,5.41,0,0,1,2.25,5.72C71.83,371.86,62.23,372.82,59.86,368Z" style="fill:#fafafa"></path><path d="M91.8,312.25s-2-5-1.14-9.16,4.63-13.73,4.63-13.73l23,3.92c-.35,8.9-3.44,16-5.46,22-2.55,6.92-3.66,9.43-6.11,12.35s-5,5.33-14.14,11.29c-8.22,5.36-15.27,9.9-15.27,9.9s-2.56,0-4.7-3.71a12.37,12.37,0,0,1-1.28-5.05s8.12-11.28,12-14.56a52.69,52.69,0,0,1,6.87-5.07Z" style="fill:#263238"></path><path d="M101.11,397.78a17.18,17.18,0,0,0,2.37.26,5.58,5.58,0,0,0,1.63-.1,6.19,6.19,0,0,0,2-1,2.94,2.94,0,0,0,1.24-1.23,2.2,2.2,0,0,0-.44-2.11,10.06,10.06,0,0,0-1.68-1.5l-.06-.05a23.54,23.54,0,0,1-5.09-6.51c-1.28-2.27-2.58-4.8-2.52-7.48s1.35-15.69,3.34-27.76a86.93,86.93,0,0,0,1.3-12.13c0-.43-.71-15.5-1.94-29.77a50.78,50.78,0,0,0,9-5.59,22,22,0,0,0,6.52-9.38L91,286.09a79.9,79.9,0,0,0-6,7.37c-2.27,3.37-3,7.18-2.75,12.73.24,5,1.8,11.81,2.6,15.66,1.69,8.09,2.3,12.87,2.92,17.45A53.35,53.35,0,0,0,87,355.36c.42,4.44,1.76,16.31,1.74,21,0,0-.11,1-.54,3.66-.2,1.27-1.8,4.31,0,5.77a9.77,9.77,0,0,0,1.07,1c.48.3,1,.62,1.4,1a6.54,6.54,0,0,1,1.21,1.14,9.29,9.29,0,0,1,.91,1.74A12.94,12.94,0,0,0,97,396.15,10.28,10.28,0,0,0,101.11,397.78Z" style="fill:#b16668"></path><path d="M86.87,384.79a2.88,2.88,0,0,0,.76,2.44,19.39,19.39,0,0,0,3.43,2.38,6,6,0,0,1,2.35,3,8,8,0,0,0,5.25,5.57,12.78,12.78,0,0,0,8.87.28c1.53-.48,2.48-1.3,2.45-2.73S86.87,384.79,86.87,384.79Z" style="fill:#263238"></path><path d="M89.52,378.1c-.73-.4-.62-.89-.75-1.2v-.53c-.5,0-.63,1.5-1.31,3.27a10.15,10.15,0,0,0-.59,5.15c.9,2,3.88,2.56,5.44,4.54s1.48,5.62,6.69,7.5c4.69,1.7,9.48.08,11-1.1,0,0,.76-3.27-1.35-4.29a11.55,11.55,0,0,1-4.93-4.17,45.78,45.78,0,0,1-3.92-7.07c-.33-1-.29-2.89-1-3a37.11,37.11,0,0,0-6.57,1.28c-1.07.38-.33,2.52-.33,2.52a4.43,4.43,0,0,1-.93-1.5C90.54,378.48,90.16,378.45,89.52,378.1Z" style="fill:#37474f"></path><path d="M96.88,395.81c.21-2.34,1.51-4.2,4.37-5.42a8,8,0,0,1,5.43-.37c1,.46,3.2,1.41,3.41,3a7.18,7.18,0,0,1-.11,2.67s-2.27,2.17-7.13,1.91C98.67,397.42,96.88,395.81,96.88,395.81Z" style="fill:#fafafa"></path><path d="M87.24,339.37C85.33,346.85,87,357,87.57,362c.32,2.68,1,9.39,1,9.39s.4,1.49,4.69,2,5.94-.82,5.94-.82,2.54-17.45,3.46-25.62a72.9,72.9,0,0,0,.58-12.65c0-3.55-.35-19.76-.79-22.83l0-2.7s13.52-6,15.82-15.51l-28.48-7.84A25.31,25.31,0,0,0,83.08,293c-1.9,3.35-2.31,6-2.4,10.6-.07,3.45.52,6.71,1.51,11.88S86.19,336.67,87.24,339.37Z" style="fill:#37474f"></path></g><g id="freepik--top--inject-31"><g id="freepik--arm--inject-31"><path d="M117.69,258.6c-2.8,2.46-4.14,6.06-.15,11.31a171,171,0,0,0,13.38,15.42c2.24,2.19,2.54,2.82,6.75,3.67,4.56.92,20.31,1.26,21.58,1.32a5.42,5.42,0,0,0,3.16-1.18,7.62,7.62,0,0,0,1.88-1.79c.71-.91.38-2.12.4-3.15.05-1.88.16-3.74.19-5.62,0-.85.26-1.8-.25-2.56-.1-.15-.35-.33-.51-.29,0,0,0-.8,0-1.16,0-.67-.05-1.91-.83-2.16s-1.18,1.32-1.18,1.32a5.12,5.12,0,0,0,.21-2.17c-.29-.88-1-1.42-1.48-.89a4,4,0,0,0-.74,1.3,1,1,0,0,0-.88.1,3.5,3.5,0,0,0-1.35,2.16,14.28,14.28,0,0,0-.6,2.89,13.31,13.31,0,0,1-.44,3,3.13,3.13,0,0,1-1.17,1.58,2.51,2.51,0,0,1-2,.23,31.43,31.43,0,0,1-3.32-.66c-2.72-.64-5.42-1.4-8.11-2.17l-3-.89s-7.37-9.74-10.28-13.37C126.88,262.21,123.27,257.29,117.69,258.6Z" style="fill:#b16668"></path><path d="M164.69,284.2l.08-4.43c0-.73,0-1.48.09-2.21a3.17,3.17,0,0,0-.1-1.07,1.83,1.83,0,0,0-.24-.46.55.55,0,0,0-.38-.21.09.09,0,0,1-.11-.07v0a6.85,6.85,0,0,0-.21-2.69c-.16-.37-.6-.71-.89-.4a3.07,3.07,0,0,0-.67,1.12.12.12,0,0,1-.15.08.12.12,0,0,1-.07-.15,7.42,7.42,0,0,0,.27-1.39A1.8,1.8,0,0,0,162,271a1.13,1.13,0,0,0-.51-.41.51.51,0,0,0-.55.19,4,4,0,0,0-.69,1.22.08.08,0,0,1-.11.05h0a1.3,1.3,0,0,0-1.32.53,3.93,3.93,0,0,0-.72,1.41,14.09,14.09,0,0,0-.75,3.14,14.34,14.34,0,0,1,.63-3.18,4.31,4.31,0,0,1,.73-1.47,1.42,1.42,0,0,1,1.51-.57l-.11,0a3.79,3.79,0,0,1,.71-1.29.69.69,0,0,1,.74-.25,1.21,1.21,0,0,1,.61.48,2,2,0,0,1,.4,1.43,7.11,7.11,0,0,1-.26,1.45l-.23-.07a3.09,3.09,0,0,1,.73-1.24.62.62,0,0,1,.77-.07,1.23,1.23,0,0,1,.49.57,3.75,3.75,0,0,1,.24,1.4l0,1.38-.12-.1c.52,0,.71.47.83.81a3,3,0,0,1,.09,1.12c-.06.74-.08,1.47-.11,2.21Z" style="fill:#9a4a4d"></path><path d="M160.18,271.85a1,1,0,0,1,.51,1,3.93,3.93,0,0,1-.13,1,14.67,14.67,0,0,0-.46,2,19.11,19.11,0,0,0-.22,2l0,2v-2a17.18,17.18,0,0,1,.16-2,13.75,13.75,0,0,1,.4-2,3.55,3.55,0,0,0,.09-1,.79.79,0,0,0-.39-.74Z" style="fill:#9a4a4d"></path><path d="M162.27,273.74c-.14.94-.23,1.88-.3,2.83s-.13,1.89-.11,2.84c-.06-1,0-1.9,0-2.85s.07-1.9.17-2.85Z" style="fill:#9a4a4d"></path><path d="M161.44,283.49a4,4,0,0,0-2.28-1.23c-.06,0,0,.1,0,.11a4.49,4.49,0,0,1,1.92,1.28,6.22,6.22,0,0,1,1.08,2c.09.25.16.52.27.76a.16.16,0,0,0,.08-.17,8.88,8.88,0,0,0-.32-1.55A3,3,0,0,0,161.44,283.49Z" style="fill:#9a4a4d"></path><path d="M164.24,275.74c-.17,1.15-.34,2.31-.4,3.47a34.16,34.16,0,0,1,.16-3.5Z" style="fill:#9a4a4d"></path><path d="M156.79,279.06c-.36-1.6-1.45-2.15-2-1.74s0,2.31,0,3.6-.45,7.41,2.44,8.37l.68-6.94C157.39,282,157.08,280.31,156.79,279.06Z" style="fill:#b16668"></path><path d="M157.87,282.35a2.37,2.37,0,0,1-.57-1.07c-.13-.38-.24-.78-.34-1.17a5.65,5.65,0,0,0-.79-2.25,1.39,1.39,0,0,0-.95-.57.6.6,0,0,0-.47.18.94.94,0,0,0-.14.52c0,.78.18,1.59.24,2.41a35.75,35.75,0,0,0,.11,4.86,8.54,8.54,0,0,0,.62,2.33,2.93,2.93,0,0,0,1.61,1.7,3,3,0,0,1-1.73-1.65,8.37,8.37,0,0,1-.66-2.36,34.56,34.56,0,0,1-.2-4.87,24.11,24.11,0,0,1-.19-2.44,1,1,0,0,1,.19-.63.78.78,0,0,1,.63-.24,1.56,1.56,0,0,1,1.07.66C157.27,279.18,156.9,281,157.87,282.35Z" style="fill:#9a4a4d"></path></g><path d="M114.48,257.91a21.93,21.93,0,0,1,6,.52c1.21.42,5.41,7.7,7.14,15.26s-6.17,10.53-6.17,10.53-2.28,7.65-2.57,9.29.34,4.41-1,6c-1.67,2-6.32,3.85-16.08.56-7.32-2.47-14.23-10-14.61-11.69-.26-1.17,1.18-2.4,1.78-2.9,2.35-1.91,3.91-3.1,4.6-8.91a43.25,43.25,0,0,1,2.6-10.28c1.53-3.82,3.73-5,5.08-6.76A73.68,73.68,0,0,1,114.48,257.91Z" style="fill:#455a64"></path><g id="freepik--top--inject-31"><path d="M103,234.5c-3.91.91-4.6,7.13-2.27,10.9,3.85,6.24,7.5,7.1,8,10.08,4.12-3.07,8.16-6.26,12.31-9.29,2.75-1.29,6-4,4.47-7.34a1.71,1.71,0,0,0,3.1-1.22,1.17,1.17,0,0,1-2.15.41c-.51-.84-.22-1.94-.06-2.92.42-2.66-2-5.76-4.78-5.52C115.88,225.48,104.91,226.89,103,234.5Z" style="fill:#263238"></path><path d="M105.82,256.13a1.82,1.82,0,0,1,.7-.49,3.39,3.39,0,0,1,1.06-.13,4.33,4.33,0,0,0,2.47-1,10.31,10.31,0,0,0,1.57-2,3.29,3.29,0,0,0,.34-2.23,9.4,9.4,0,0,0-2.15-5.44,6.26,6.26,0,0,0-1.27-1.08,11.18,11.18,0,0,0-1.44-.69,2,2,0,0,0-.58-.2,17,17,0,0,0-1.75-.19,1.66,1.66,0,0,1-.32,0,1.23,1.23,0,0,1-.41-.17,5.09,5.09,0,0,0-1.19-.47,8,8,0,0,0-3-.21,4.79,4.79,0,0,0-2.83,1.2,2.75,2.75,0,0,0-.76,2.86,2.69,2.69,0,0,1,.36,1.11,2,2,0,0,1-.5.95,3.24,3.24,0,0,0,0,4,9.12,9.12,0,0,1,1.19,1.13c.43.66.31,1.54.57,2.29a3.21,3.21,0,0,0,1.45,1.85,3.34,3.34,0,0,0,2,.45,2.47,2.47,0,0,1-1.27-3,3.64,3.64,0,0,0,1.52,2.29,3.18,3.18,0,0,0,3.18.18A8.19,8.19,0,0,0,105.82,256.13Z" style="fill:#263238"></path><path d="M106.67,257.58l.67-6.27a2.88,2.88,0,0,1-3.57-.56c-2-1.95-2.34-4.16-1.32-5.63,1.11-1.63,3.76-1.14,5,.73,1.73.33,2.32-2.14.91-4.59,0,0,3.4-2.18,2.58-5.81,3,1.72,9.93,2.3,11.44-.83,1,1.39,2.39,3,2.7,10.74.28,7.06-1,8.8-2.92,9.73a9.53,9.53,0,0,1-4.71.64s0,.92-.12,1.49.27.71.87.8c1.36,1.06,3,4.14-.83,4.82-8.4,1.49-11.78-2.56-12.29-4C106.25,258.62,106.56,258.35,106.67,257.58Z" style="fill:#b16668"></path><path d="M121.23,239.41l2.26,1a1.18,1.18,0,0,1-1.59.65A1.3,1.3,0,0,1,121.23,239.41Z" style="fill:#263238"></path><path d="M112.75,241.43l2.23-1.14a1.2,1.2,0,0,0-1.65-.57A1.32,1.32,0,0,0,112.75,241.43Z" style="fill:#263238"></path><polygon points="118.03 241.86 118.63 248.33 121.9 246.82 118.03 241.86" style="fill:#9a4a4d"></polygon><path d="M120.93,243.17a1.07,1.07,0,0,0,1,1.09,1,1,0,0,0,1.07-.95,1.06,1.06,0,0,0-1-1.09A1,1,0,0,0,120.93,243.17Z" style="fill:#263238"></path><path d="M115.89,249.93a.65.65,0,0,0,.62.67.61.61,0,0,0,.66-.59.66.66,0,0,0-.62-.68A.62.62,0,0,0,115.89,249.93Z" style="fill:#9a4a4d"></path><path d="M113.71,243.36a1.06,1.06,0,0,0,1,1.08,1,1,0,0,0,1.06-.95,1.05,1.05,0,0,0-1-1.08A1,1,0,0,0,113.71,243.36Z" style="fill:#263238"></path><path d="M117.42,255.73h0c-3.92-.24-7.71-1.37-8.66-3.12a3.75,3.75,0,0,0,1.86,2.58c2,1.07,6.72,1.6,6.72,1.6Z" style="fill:#9a4a4d"></path></g><g id="freepik--arm--inject-31"><path d="M101.16,259.57c-3.61.91-7.1,4.19-6,10.69a170.21,170.21,0,0,0,4.86,19.82c1,3,1,3.68,4.32,6.36,3.64,2.91,17.49,10.41,18.59,11s2.43.56,4.64.22,3-1.81,4.57-3,3.72-2.23,3.31-2.84-1.5-1-3.3-.24-2.18,1.16-.62-1.6a24.6,24.6,0,0,1,3.07-4.27c.75-1,.62-1.89.14-2.37s-1.65.63-1.65.63a5.13,5.13,0,0,0,1.18-1.83c.14-.92-.24-1.71-.91-1.47a4,4,0,0,0-1.25.82c-.27-.36-1.44-.7-2.79.79,0,0-.41-1-2.35.39-1.59,1.13-3.13,3.91-3.89,5.21-.58,1-12.38-10.42-12.38-10.42l-3.82-16.22S105.31,260.88,101.16,259.57Z" style="fill:#b16668"></path><path d="M131.58,300.05c.39-.71.81-1.41,1.27-2.09a19.91,19.91,0,0,1,1.51-1.92,2.22,2.22,0,0,0,.64-2.15,1.15,1.15,0,0,0-.32-.45.52.52,0,0,0-.5,0,3.34,3.34,0,0,0-1,.66.1.1,0,1,1-.14-.14,7.9,7.9,0,0,0,.87-1.13,1.78,1.78,0,0,0,.27-1.31c-.05-.46-.39-.87-.81-.65a3.64,3.64,0,0,0-1.16.76.12.12,0,0,1-.17,0h0a.88.88,0,0,0-.63-.27,1.74,1.74,0,0,0-.74.14,3.6,3.6,0,0,0-1.25.91.09.09,0,0,1-.13,0l0,0h0a.75.75,0,0,0-.91-.24,3.57,3.57,0,0,0-1,.47,6.57,6.57,0,0,0-1.67,1.53,30.44,30.44,0,0,0-2.56,3.8,27.63,27.63,0,0,1,2.45-3.89,6.87,6.87,0,0,1,1.69-1.58,4,4,0,0,1,1.06-.51.94.94,0,0,1,1.13.34l-.16,0a3.76,3.76,0,0,1,1.31-1,2,2,0,0,1,.83-.16,1.09,1.09,0,0,1,.81.35h-.17a4,4,0,0,1,1.23-.84.74.74,0,0,1,.81.13,1.3,1.3,0,0,1,.32.72,2,2,0,0,1-.32,1.46,6.85,6.85,0,0,1-.91,1.16l-.14-.14a3.73,3.73,0,0,1,1-.7.72.72,0,0,1,.67,0,1.22,1.22,0,0,1,.38.53,2.39,2.39,0,0,1-.69,2.31c-.54.62-1.07,1.22-1.55,1.88S132,299.35,131.58,300.05Z" style="fill:#9a4a4d"></path><path d="M129.49,292.31a1.81,1.81,0,0,1-.39,1.62,3.54,3.54,0,0,1-.58.58,3.87,3.87,0,0,0-.5.62,25.74,25.74,0,0,0-1.57,2.82,24.52,24.52,0,0,1,1.47-2.89,3.89,3.89,0,0,1,.49-.66,3.7,3.7,0,0,0,.54-.59,1.55,1.55,0,0,0,.3-1.42Z" style="fill:#9a4a4d"></path><path d="M132.26,291.48a1,1,0,0,1,0,1.08,3.65,3.65,0,0,1-.59.86,14.41,14.41,0,0,0-1.3,1.53,18.86,18.86,0,0,0-1.12,1.68l-1,1.78.92-1.81a18.18,18.18,0,0,1,1.07-1.72,12.94,12.94,0,0,1,1.26-1.59,3.39,3.39,0,0,0,.53-.82.79.79,0,0,0,0-.83Z" style="fill:#9a4a4d"></path><path d="M133.24,294.11c-.55.77-1.05,1.57-1.55,2.38s-1,1.62-1.39,2.48c.37-.88.83-1.71,1.28-2.55s.94-1.65,1.46-2.45Z" style="fill:#9a4a4d"></path><path d="M132.2,301.65c-1.17.47-1.73.81-1.57.25h0c-.54,1.21-.48,1.71,0,1.27a17,17,0,0,1,1.47-1.27,4.94,4.94,0,0,1,1.39-.64A6.32,6.32,0,0,0,132.2,301.65Z" style="fill:#9a4a4d"></path><path d="M127.52,302.8a3.91,3.91,0,0,0-1.46-2.14s-.08.07,0,.1a4.4,4.4,0,0,1,1.12,2,8.45,8.45,0,0,1,.16,1.23,3.39,3.39,0,0,1,0,.78,2.73,2.73,0,0,0-.06.49s0,0,0,0a1.26,1.26,0,0,0,.22-.5,3.35,3.35,0,0,0,.17-.62A3.08,3.08,0,0,0,127.52,302.8Z" style="fill:#9a4a4d"></path><path d="M119.13,295.23h0s2.85,5.25,3.07,5a24.11,24.11,0,0,0,.94-2.31C122.92,298.31,121.21,297,119.13,295.23Z" style="fill:#9a4a4d"></path></g></g></g></g><g id="freepik--cube-1--inject-31"><g id="freepik--box--inject-31"><polygon points="107.49 418.49 170.76 455.02 170.76 351.2 107.49 314.67 107.49 418.49" style="fill:#e0e0e0"></polygon><polygon points="234.03 418.49 170.76 455.02 170.76 351.2 234.03 314.67 234.03 418.49" style="fill:#f0f0f0"></polygon><polygon points="234.03 314.67 170.76 278.14 107.49 314.67 170.76 351.2 234.03 314.67" style="fill:#fafafa"></polygon></g></g><g id="freepik--symbols-1--inject-31"><g id="freepik--exclamation-sign--inject-31"><path d="M132.77,244.54a.56.56,0,0,1,.34-.3.58.58,0,0,1,.45,0l2.49,1.22a.55.55,0,0,1,.29.34.54.54,0,0,1,0,.45l-1,2a.56.56,0,0,1-.34.3.61.61,0,0,1-.46,0l-2.48-1.22a.6.6,0,0,1-.3-.34.58.58,0,0,1,0-.45Zm5.28-10.74a.6.6,0,0,1,.34-.3.59.59,0,0,1,.45,0l2.48,1.22a.53.53,0,0,1,.3.34.58.58,0,0,1,0,.45l-4.17,8.5a.58.58,0,0,1-.34.29.54.54,0,0,1-.45,0l-2.49-1.22a.59.59,0,0,1-.29-.35.55.55,0,0,1,0-.45Z" style="fill:#407BFF"></path><path d="M138.21,250.54a.59.59,0,0,1,.42-.19.6.6,0,0,1,.42.16l2,1.91a.62.62,0,0,1,.18.41.6.6,0,0,1-.16.43l-1.53,1.6a.59.59,0,0,1-.41.19.6.6,0,0,1-.43-.16l-2-1.91a.54.54,0,0,1-.18-.41.56.56,0,0,1,.15-.43Zm8.24-8.68a.58.58,0,0,1,.83,0l2,1.91a.54.54,0,0,1,.18.41.56.56,0,0,1-.16.43l-6.51,6.86a.54.54,0,0,1-.41.18.56.56,0,0,1-.43-.16l-2-1.9a.59.59,0,0,1-.19-.42.6.6,0,0,1,.16-.42Z" style="fill:#407BFF"></path><g style="opacity:0.2"><path d="M138.21,250.54a.59.59,0,0,1,.42-.19.6.6,0,0,1,.42.16l2,1.91a.62.62,0,0,1,.18.41.6.6,0,0,1-.16.43l-1.53,1.6a.59.59,0,0,1-.41.19.6.6,0,0,1-.43-.16l-2-1.91a.54.54,0,0,1-.18-.41.56.56,0,0,1,.15-.43Zm8.24-8.68a.58.58,0,0,1,.83,0l2,1.91a.54.54,0,0,1,.18.41.56.56,0,0,1-.16.43l-6.51,6.86a.54.54,0,0,1-.41.18.56.56,0,0,1-.43-.16l-2-1.9a.59.59,0,0,1-.19-.42.6.6,0,0,1,.16-.42Z" style="fill:#fff"></path></g></g></g><g id="freepik--character-1--inject-31"><g id="freepik--character--inject-31"><g id="freepik--bottom--inject-31"><path d="M261.43,332.5a12.46,12.46,0,0,1-.13-4.23,24.41,24.41,0,0,0,.39-6c-.14-1.07-.47-2.1-.68-3.16a5.76,5.76,0,0,1,.11-3.19c.66-1.73,2.39-2.13,4-2.65a9.85,9.85,0,0,0,3.64-1.59c1.31-1,5.94-7.3,5.94-7.3l6.08,9.41s-6.45,4.64-8,6.5a11.65,11.65,0,0,0-2.24,3.22,11.1,11.1,0,0,0-.39,3.58,8,8,0,0,0,.45,2.52c.38.85,1.42,1.51,2,2.25a6.75,6.75,0,0,1,1.34,2.82,1.29,1.29,0,0,1-.48,1.42c-.24.17-.53.23-.77.4a5.38,5.38,0,0,1-.81.58,6.7,6.7,0,0,1-2.58.54,9.07,9.07,0,0,1-4.88-1.1A6.06,6.06,0,0,1,261.43,332.5Z" style="fill:#ffbda7"></path><path d="M261.32,313.83c-1.83.22-2.24,1.63-2.48,3.16s.79,4.13,1.16,5.5a5.52,5.52,0,0,1,0,4.15c-.68,2.3-1.14,6.23.06,8.72s3.32,4.07,7.29,4.21,6.31-.83,6.78-1.63a6.38,6.38,0,0,0,.29-3.61c-.25-.55-5.37-4.3-6.86-6.88S261.32,313.83,261.32,313.83Z" style="fill:#263238"></path><path d="M269.11,311.38c-.36-.35-.64-.36-1.57.13a11.07,11.07,0,0,1-2.66.95c-1.63.43-4.09.47-4.74,3.65s1.17,6.19,1,8.1c-.15,1.48-2.05,6.21-.3,10s4.93,3.83,7.7,4,6-1,6.14-2.17a6.36,6.36,0,0,0-2.87-5.62c-2-1.38-.83-6.68-.6-7.31a5.09,5.09,0,0,1,1.71-2.29c.94-.86,1.26-1.08-.46-1.7-1.53-.55-4.65-1.72-6.17.23,0,0,1.35-2.11,1.24-3s-.64-2.92.54-4.07A3.52,3.52,0,0,0,269.11,311.38Z" style="fill:#37474f"></path><path d="M261.06,334.81c.57-2.17,3.6-4,6.43-4.44s4-.36,5,.22a5.39,5.39,0,0,1,2.24,5.72C273,338.71,263.43,339.67,261.06,334.81Z" style="fill:#fafafa"></path><path d="M293,279.1s-2-5-1.14-9.16,4.63-13.73,4.63-13.73l23,3.92c-.35,8.9-3.43,16-5.45,22-2.55,6.93-3.66,9.44-6.12,12.36s-5,5.32-14.14,11.29c-8.21,5.36-15.27,9.9-15.27,9.9s-2.56,0-4.7-3.71a12.28,12.28,0,0,1-1.27-5s8.11-11.28,12-14.57a54.38,54.38,0,0,1,6.86-5.07Z" style="fill:#263238"></path><path d="M314.22,366a17.3,17.3,0,0,0,2.38.16,5.83,5.83,0,0,0,1.62-.16,6.37,6.37,0,0,0,1.93-1,3.05,3.05,0,0,0,1.18-1.29,2.21,2.21,0,0,0-.52-2.09,10.38,10.38,0,0,0-1.74-1.42l-.07-.05a23.31,23.31,0,0,1-5.35-6.3c-1.38-2.21-2.78-4.68-2.84-7.36s.7-15.74,2.18-27.88a86.26,86.26,0,0,0,.79-12.18c0-.42-2-19.51-6.52-33.15a16.4,16.4,0,0,0,7.3-4.1,39.33,39.33,0,0,0,4.94-6.62l-24.76-10a25.85,25.85,0,0,0-6.08,6.73,24.43,24.43,0,0,0-3.72,14.37c.45,5,2.5,10.64,4,14.26,2.79,6.61,7.74,16.72,9.4,20.25a53.05,53.05,0,0,0,0,16.07c.61,4.43,2.66,16.53,2.84,21.22a15.62,15.62,0,0,0-.6,3.39c-.15,1.28-1.62,4.38.24,5.76a10,10,0,0,0,1.12.92,14.27,14.27,0,0,1,1.43.9,6,6,0,0,1,1.26,1.09,8.87,8.87,0,0,1,1,1.69,13.08,13.08,0,0,0,4.39,5.38A10.48,10.48,0,0,0,314.22,366Z" style="fill:#ffbda7"></path><path d="M299.42,353.61a2.87,2.87,0,0,0,.7,2.46,19,19,0,0,0,3.37,2.48,6,6,0,0,1,2.26,3.05,8,8,0,0,0,5.1,5.71,12.71,12.71,0,0,0,8.86.52c1.54-.44,2.52-1.23,2.53-2.67S299.42,353.61,299.42,353.61Z" style="fill:#263238"></path><path d="M302.26,347a2.22,2.22,0,0,1-1-1.23v-.39c-.5,0-.34,1.34-1.07,3.1a10.18,10.18,0,0,0-.73,5.13c.86,2.06,3.82,2.67,5.33,4.69s1.32,5.65,6.48,7.67c4.65,1.83,9.47.34,11-.81,0,0,.85-3.24-1.24-4.31a11.65,11.65,0,0,1-4.82-4.3,45.25,45.25,0,0,1-3.72-7.18c-.31-1-.22-2.9-.91-3a37.26,37.26,0,0,0-6.6,1.11c-1.07.34-.39,2.51-.39,2.51a4.58,4.58,0,0,1-.9-1.52C303.26,347.4,302.89,347.36,302.26,347Z" style="fill:#37474f"></path><path d="M309.14,364.89c.27-2.33,1.62-4.15,4.51-5.29a8,8,0,0,1,5.44-.23c1,.49,3.16,1.5,3.32,3.13a7.2,7.2,0,0,1-.17,2.66s-2.34,2.12-7.18,1.73C310.88,366.55,309.14,364.89,309.14,364.89Z" style="fill:#fafafa"></path><path d="M297.93,308.18c-1.6,7.56.45,17.58,1.27,22.64.44,2.66,1.41,9.33,1.41,9.33s.46,1.48,4.76,1.79,5.9-1.07,5.9-1.07,1.46-17.57,2.39-25.74a43.71,43.71,0,0,0,.07-12.09c-.18-3.54-2.27-15.12-3.89-22.07l-1.34-6.69s9.11-2.25,11-11.81l-25.34-10.91a22.36,22.36,0,0,0-7.09,6.63c-2.15,3.19-3.65,6-3.45,12.14.15,4.54,1.54,8,2.51,11.26C287,284.63,296.77,305.53,297.93,308.18Z" style="fill:#37474f"></path><path d="M305.17,282.48a99,99,0,0,1,3.75,12.63c.5,2.15.88,4.32,1.2,6.5.16,1.09.28,2.19.39,3.29,0,.55.11,1.1.14,1.66s0,1.11,0,1.66c0,4.42-.25,8.8-.6,13.17s-.82,8.73-1.4,13.08q.17-6.57.44-13.14l.23-6.55c.07-2.19.12-4.37.1-6.54,0-.55,0-1.08,0-1.62s-.08-1.08-.12-1.62c-.09-1.08-.22-2.16-.34-3.24-.25-2.16-.61-4.31-1-6.46C307.2,291,306.22,286.75,305.17,282.48Z" style="fill:#263238"></path></g><g id="freepik--top--inject-31"><path d="M303.73,199.6c-3.77.76-5.36,7.23-5,14s4,17,16.3,19.39,17.57-1.43,19.13-5c2.74-6.25-1.48-9.76-4.62-9.53,2.06-2.44-1.21-8.38-6.49-5.91C320,214,303.73,199.6,303.73,199.6Z" style="fill:#263238"></path><g id="freepik--arm--inject-31"><path d="M319.93,223c-3.3,1.71-5.46,4.89-2.85,10.94a170.73,170.73,0,0,0,9.31,18.17c1.66,2.66,1.79,3.35,5.68,5.18,4.21,2,19.42,6.08,20.63,6.44a5.42,5.42,0,0,0,3.36-.39,7.75,7.75,0,0,0,2.25-1.29c.9-.71.88-2,1.15-3,.49-1.81,1-3.6,1.52-5.41a4.27,4.27,0,0,0,.37-2.55c-.06-.17-.26-.4-.42-.4,0,0,.2-.77.3-1.12.18-.64.41-1.87-.29-2.3s-1.46,1-1.46,1a5.18,5.18,0,0,0,.73-2.06c-.07-.92-.63-1.61-1.23-1.21a4,4,0,0,0-1,1.08,1,1,0,0,0-.88-.11,3.49,3.49,0,0,0-1.82,1.77,13.94,13.94,0,0,0-1.28,2.67,13.42,13.42,0,0,1-1.13,2.77,3.18,3.18,0,0,1-1.52,1.26,2.58,2.58,0,0,1-2-.26c-1.05-.41-2.06-.92-3.06-1.43-2.49-1.28-4.93-2.66-7.36-4.06-.91-.52-1.81-1.05-2.71-1.58,0,0-4.83-11.22-6.8-15.44C328,228.73,325.67,223.09,319.93,223Z" style="fill:#ffbda7"></path><path d="M359.46,259.13l1.13-4.28c.2-.71.39-1.44.62-2.13a3,3,0,0,0,.15-1.06,1.41,1.41,0,0,0-.12-.5c-.06-.14-.21-.29-.31-.3a.09.09,0,0,1-.1-.1v0a6.9,6.9,0,0,0,.44-2.65c-.07-.41-.41-.84-.77-.61a3.26,3.26,0,0,0-.92.93.12.12,0,0,1-.16,0,.13.13,0,0,1,0-.16A7.18,7.18,0,0,0,360,247a1.8,1.8,0,0,0,0-1.35,1.09,1.09,0,0,0-.39-.52.5.5,0,0,0-.58.05,3.92,3.92,0,0,0-1,1,.08.08,0,0,1-.11,0h0a1.29,1.29,0,0,0-1.41.2,4.25,4.25,0,0,0-1,1.19,14.26,14.26,0,0,0-1.48,2.88,14.07,14.07,0,0,1,1.38-2.94,4.2,4.2,0,0,1,1-1.25,1.44,1.44,0,0,1,1.61-.2l-.13,0a4,4,0,0,1,1-1.09.69.69,0,0,1,.78-.06,1.18,1.18,0,0,1,.47.61,2,2,0,0,1,.05,1.48,7.11,7.11,0,0,1-.6,1.35l-.21-.13a3.27,3.27,0,0,1,1-1,.62.62,0,0,1,.76.11,1.17,1.17,0,0,1,.34.67,3.56,3.56,0,0,1-.1,1.42l-.37,1.33-.09-.12c.51.13.57.62.61,1a3.5,3.5,0,0,1-.17,1.12c-.25.7-.44,1.4-.65,2.11Z" style="fill:#f0997a"></path><path d="M358,246.06a1,1,0,0,1,.26,1.05,3.54,3.54,0,0,1-.37,1,13.8,13.8,0,0,0-.91,1.8,19.31,19.31,0,0,0-.7,1.89l-.53,1.95.47-2c.18-.65.4-1.29.64-1.92a14.7,14.7,0,0,1,.86-1.84,3.38,3.38,0,0,0,.33-.92.81.81,0,0,0-.2-.81Z" style="fill:#f0997a"></path><path d="M359.6,248.39c-.36.88-.67,1.78-1,2.68a28.37,28.37,0,0,0-.78,2.73c.16-.94.41-1.85.66-2.77s.53-1.83.85-2.73Z" style="fill:#f0997a"></path><path d="M356.47,257.66a4.05,4.05,0,0,0-1.92-1.74c-.06,0-.06.09,0,.11a4.4,4.4,0,0,1,1.56,1.7,6.3,6.3,0,0,1,.58,2.17,7.22,7.22,0,0,0,.08.8.15.15,0,0,0,.12-.14,9.36,9.36,0,0,0,.06-1.59A3.1,3.1,0,0,0,356.47,257.66Z" style="fill:#f0997a"></path><path d="M361,250.81c-.44,1.08-.88,2.16-1.21,3.27a33.06,33.06,0,0,1,1-3.36Z" style="fill:#f0997a"></path><path d="M353,252.25c0-1.64-.89-2.43-1.55-2.18s-.55,2.24-.88,3.5-2.21,7.09.37,8.71l2.32-6.58C352.89,255.24,353,253.53,353,252.25Z" style="fill:#ffbda7"></path><path d="M353.27,255.7a2.48,2.48,0,0,1-.3-1.17c0-.41,0-.82,0-1.22a5.51,5.51,0,0,0-.24-2.37,1.38,1.38,0,0,0-.78-.79.61.61,0,0,0-.5.06,1,1,0,0,0-.26.48c-.2.76-.2,1.58-.34,2.39a34.5,34.5,0,0,0-1.05,4.75,8.46,8.46,0,0,0,0,2.41,3,3,0,0,0,1.16,2,3,3,0,0,1-1.28-2,8.67,8.67,0,0,1-.08-2.44,35.81,35.81,0,0,1,1-4.78c.15-.79.17-1.61.4-2.42a1,1,0,0,1,.34-.56A.75.75,0,0,1,352,250a1.53,1.53,0,0,1,.88.9C353.45,252.48,352.66,254.16,353.27,255.7Z" style="fill:#f0997a"></path></g><path d="M314,223a21.07,21.07,0,0,1,6,.08c1.24.32,6,7.27,8.25,14.68s-5.37,11-5.37,11-1.71,7.8-1.87,9.46.66,4.37-.6,6.09c-1.52,2.09-6,4.31-16,1.75-7.49-1.92-14.94-8.94-15.43-10.58-.35-1.14,1-2.48,1.56-3,2.19-2.08,3.66-3.39,3.92-9.23a43.77,43.77,0,0,1,1.83-10.45c1.25-3.92,3.35-5.27,4.57-7.12A73.91,73.91,0,0,1,314,223Z" style="fill:#407BFF"></path><g id="freepik--head--inject-31"><path d="M307,219s-2.43-3.54-3.76-5.92-5.15-10.24.46-13.46c.2-2.62,2.89-5.07,7.94-6.06a14.35,14.35,0,0,1,11.95,2.67c3.46,2.79,5.75,9.92,1.1,13.77Z" style="fill:#263238"></path><path d="M324.07,200.76s1.68,1.86,1.31,7.05c-.06.9.53,2.51.48,4.8-.13,5.21-1.83,7.75-4.45,8.67a10.8,10.8,0,0,1-4.3.17l-.24,3a27.47,27.47,0,0,1,3.33,12.7,82.71,82.71,0,0,0-13.46-11.47l.4-9.11s-1.49,1.14-3.25-.66c-1.93-2-1.78-5-.16-6.09,2.38-1.54,3.95.29,4.45,1.41s2.45.42,1.37-2.94c1.2-.25,2.92-4,2.77-6.66C316.42,203.4,321.55,203.15,324.07,200.76Z" style="fill:#ffbda7"></path><path d="M316.16,206.16l-2.22,1.19a1.21,1.21,0,0,1,.47-1.69A1.33,1.33,0,0,1,316.16,206.16Z" style="fill:#263238"></path><path d="M322.05,205.73l2.41.7a1.21,1.21,0,0,0-.81-1.56A1.32,1.32,0,0,0,322.05,205.73Z" style="fill:#263238"></path><polygon points="319.28 208.04 320.12 213.66 323.28 212.31 319.28 208.04" style="fill:#f0997a"></polygon><path d="M317.11,221.45A21.85,21.85,0,0,1,310.3,219a6.41,6.41,0,0,1-1.93-2.7s.2,2.56,1.59,3.71c2.2,1.82,7,3,7,3Z" style="fill:#f0997a"></path><path d="M322.12,208.82a1,1,0,0,0,1,.9.92.92,0,0,0,.89-1,1,1,0,0,0-1-.9A.92.92,0,0,0,322.12,208.82Z" style="fill:#263238"></path><path d="M315,209.11a1,1,0,0,0,.89,1,.93.93,0,0,0,1-.85,1,1,0,0,0-.89-1A.93.93,0,0,0,315,209.11Z" style="fill:#263238"></path><path d="M316.07,214.55a1.8,1.8,0,1,0,3.31,1.43Z" style="fill:#b16668"></path><path d="M315.94,215.1a1.8,1.8,0,0,0,1.78,2,2,2,0,0,0-1.78-2Z" style="fill:#f28f8f"></path></g><g id="freepik--arm--inject-31"><path d="M300.8,225.59c-3.53,1.18-6.77,4.71-5.14,11.1A169.23,169.23,0,0,0,302,256.11c1.21,2.89,1.23,3.59,4.78,6,3.84,2.62,18.21,9.08,19.35,9.63s2.47.37,4.65-.13,2.91-2,4.34-3.3,3.54-2.5,3.09-3.08-1.57-.85-3.32,0-2.08,1.32-.73-1.55a24.77,24.77,0,0,1,2.75-4.48c.67-1.11.47-1.94,0-2.38s-1.6.75-1.6.75a5.1,5.1,0,0,0,1-1.91c.08-.92-.36-1.69-1-1.4a4.11,4.11,0,0,0-1.18.91c-.29-.34-1.48-.59-2.72,1,0,0-.48-1-2.31.56-1.51,1.24-2.84,4.13-3.5,5.49-.51,1-13.12-9.48-13.12-9.48l-5-15.9S305,226.59,300.8,225.59Z" style="fill:#ffbda7"></path><path d="M334.13,263.71c.34-.74.7-1.47,1.11-2.18a19.9,19.9,0,0,1,1.37-2,2.26,2.26,0,0,0,.48-2.2,1.14,1.14,0,0,0-.36-.42.53.53,0,0,0-.5,0,3.37,3.37,0,0,0-.91.74.1.1,0,0,1-.14,0,.09.09,0,0,1,0-.13,7.17,7.17,0,0,0,.78-1.19,1.82,1.82,0,0,0,.17-1.33c-.08-.45-.45-.84-.85-.59a3.62,3.62,0,0,0-1.1.85.12.12,0,0,1-.17,0h0a.88.88,0,0,0-.65-.21,1.72,1.72,0,0,0-.73.19,3.43,3.43,0,0,0-1.17,1,.11.11,0,0,1-.14,0l0,0h0a.76.76,0,0,0-.92-.17,3.63,3.63,0,0,0-1,.54,6.76,6.76,0,0,0-1.55,1.65,30.17,30.17,0,0,0-2.27,4,27.33,27.33,0,0,1,2.16-4.07,6.81,6.81,0,0,1,1.56-1.7,3.8,3.8,0,0,1,1-.58.94.94,0,0,1,1.16.25h-.17a3.79,3.79,0,0,1,1.24-1.08,1.93,1.93,0,0,1,.82-.22,1.11,1.11,0,0,1,.83.28H334a4.18,4.18,0,0,1,1.17-.92.73.73,0,0,1,.81.07,1.28,1.28,0,0,1,.38.7,2.06,2.06,0,0,1-.21,1.48,7.66,7.66,0,0,1-.82,1.22l-.15-.13a3.57,3.57,0,0,1,1-.77.67.67,0,0,1,.66,0,1.19,1.19,0,0,1,.42.5,2.4,2.4,0,0,1-.51,2.35c-.5.65-1,1.3-1.42,2S334.49,263,334.13,263.71Z" style="fill:#f0997a"></path><path d="M331.47,256.14a1.79,1.79,0,0,1-.26,1.65,4.07,4.07,0,0,1-.54.62,3.75,3.75,0,0,0-.45.65,26.11,26.11,0,0,0-1.36,2.94,25.31,25.31,0,0,1,1.25-3,3.71,3.71,0,0,1,.45-.69,4,4,0,0,0,.49-.62,1.6,1.6,0,0,0,.2-1.44Z" style="fill:#f0997a"></path><path d="M334.17,255.11a1,1,0,0,1,.09,1.08,3.52,3.52,0,0,1-.52.9,12.51,12.51,0,0,0-1.18,1.63,16.87,16.87,0,0,0-1,1.76l-.84,1.84.78-1.87c.28-.62.6-1.21.94-1.8a13.66,13.66,0,0,1,1.14-1.67,3.8,3.8,0,0,0,.47-.86.8.8,0,0,0-.07-.84Z" style="fill:#f0997a"></path><path d="M335.35,257.67c-.49.8-.94,1.64-1.37,2.48s-.86,1.69-1.21,2.58a27.53,27.53,0,0,1,1.1-2.63c.39-.87.8-1.72,1.26-2.56Z" style="fill:#f0997a"></path><path d="M334.86,265.26c-1.13.56-1.66.94-1.53.37h0c-.46,1.24-.36,1.74.09,1.26a17.52,17.52,0,0,1,1.36-1.37,4.94,4.94,0,0,1,1.34-.74A7.33,7.33,0,0,0,334.86,265.26Z" style="fill:#f0997a"></path><path d="M330.29,266.75a4,4,0,0,0-1.62-2c-.05,0-.07.08,0,.11a4.38,4.38,0,0,1,1.27,1.92,10.15,10.15,0,0,1,.25,1.22,5,5,0,0,1,.07.78,2.63,2.63,0,0,0,0,.49s0,0,0,0a1.15,1.15,0,0,0,.18-.52,2.72,2.72,0,0,0-.11-2Z" style="fill:#f0997a"></path><path d="M321.36,259.83h0s3.23,5,3.44,4.79.38-1.34.76-2.37C325.36,262.62,323.56,261.46,321.36,259.83Z" style="fill:#f0997a"></path></g></g></g></g><g id="freepik--Sphere--inject-31"><g id="freepik--sphere--inject-31"><circle cx="396.92" cy="340.27" r="86.64" transform="translate(-124.35 380.33) rotate(-45)" style="fill:#407BFF"></circle><path d="M479.62,366.17c-.05.11-31.5,58.23-98.45,37.76-67.81-20.72-66.95-106.86-28.58-138.11h0a86.65,86.65,0,1,0,127,100.35Z" style="opacity:0.1"></path><path d="M378,269.61c-7.16,2.83-14.37,8-15.68,15.55-.94,5.47,1.51,11.12,5.28,15.21s8.71,6.88,13.66,9.41c15.33,7.86,31.88,14.2,44.4,26,4.91,4.64,9.53,9.53,14.71,13.86,7.8,6.52,15.57,7.5,21.48,4.24a17.33,17.33,0,0,0,2.07-1.33c22.38-16.58-2-55.12-17.08-68.34C428.34,268.06,401.4,260.37,378,269.61Z" style="fill:#fff;opacity:0.1"></path><path d="M372.51,284.13c-.79,3.3.5,6.84,2.7,9.42a24.17,24.17,0,0,0,8.29,5.78c10.68,5,22.59,6.85,33.55,11.25,3.35,1.34,6.67,2.94,10.25,3.41s7.59-.4,9.84-3.22c1.89-2.37,2.2-5.64,1.9-8.65a26,26,0,0,0-4.69-12.49c-10.35-14.49-32.79-21.86-49.51-15.83C380,275.55,373.83,278.61,372.51,284.13Z" style="fill:#fff;opacity:0.1"></path></g><g id="freepik--Lines--inject-31"><path d="M444.14,420.17c-2.81,1.64-5.41,3.59-8.2,5.27a62.88,62.88,0,0,1-8.45,4.23,63.87,63.87,0,0,1-18.09,4.51c-3.54.34-7,.24-10.59.29-.9,0-.43,1.17.2,1.29a40.15,40.15,0,0,0,10,.18,63.83,63.83,0,0,0,9.61-1.51,65.13,65.13,0,0,0,17.18-6.73c3.21-1.82,6.5-3.83,8.86-6.7C444.86,420.72,444.54,419.94,444.14,420.17Z" style="fill:#e0e0e0"></path><path d="M439.77,434c-2.38,1.06-4.48,2.68-6.8,3.88a43.38,43.38,0,0,1-6.85,2.8,42,42,0,0,1-7,1.56c-2.52.34-5.1.29-7.6.72-.38.07-.11.72.15.78a23.1,23.1,0,0,0,8.29,0,43.89,43.89,0,0,0,14-4.53c2.19-1.14,4.76-2.45,6.22-4.48C440.41,434.47,440.1,433.84,439.77,434Z" style="fill:#e0e0e0"></path></g></g><g id="freepik--speech-bubble--inject-31"><g id="freepik--speech-bubble--inject-31"><g id="freepik--speech-bubble--inject-31"><path d="M399.87,164.28a30.84,30.84,0,1,0-5,43.33A30.87,30.87,0,0,0,399.87,164.28Zm-46.18,36.59a28.07,28.07,0,1,1,39.43,4.56A28.1,28.1,0,0,1,353.69,200.87Z" style="fill:#455a64"></path><path d="M393.12,205.43A28.07,28.07,0,1,1,397.7,166,28.09,28.09,0,0,1,393.12,205.43Z" style="fill:#fff"></path><path d="M343.82,206.55l5.54-9.42,7,8.81-10.44,3.23A1.79,1.79,0,0,1,343.82,206.55Z" style="fill:#455a64"></path></g><path d="M375.7,204.25a20.39,20.39,0,0,1-3.55-.31.5.5,0,0,1-.41-.43l-.44-3.82a2.42,2.42,0,0,0-1.5-1.93l-.05,0a2.44,2.44,0,0,0-2.45.3l-3,2.38a.5.5,0,0,1-.6,0,20.12,20.12,0,0,1-5-5,.51.51,0,0,1,0-.59l2.39-3a2.41,2.41,0,0,0,.29-2.44.06.06,0,0,1,0,0,2.47,2.47,0,0,0-1.94-1.52l-3.82-.44a.5.5,0,0,1-.44-.41,21,21,0,0,1,0-7.08.51.51,0,0,1,.44-.41l3.82-.44a2.42,2.42,0,0,0,1.93-1.49.19.19,0,0,1,0-.07,2.44,2.44,0,0,0-.29-2.44l-2.39-3a.53.53,0,0,1,0-.6,20.29,20.29,0,0,1,5-5,.5.5,0,0,1,.59,0l3,2.38a2.46,2.46,0,0,0,2.45.3h0l0,0a2.41,2.41,0,0,0,1.51-1.94l.44-3.81a.51.51,0,0,1,.41-.44,21.1,21.1,0,0,1,7.09,0,.5.5,0,0,1,.41.44l.44,3.81a2.43,2.43,0,0,0,1.51,1.94l0,0h0a2.46,2.46,0,0,0,2.45-.3l3-2.38a.53.53,0,0,1,.6,0,20.25,20.25,0,0,1,5,5,.5.5,0,0,1,0,.6l-2.38,3a2.42,2.42,0,0,0-.3,2.44l0,.07A2.41,2.41,0,0,0,392,179l3.82.43a.49.49,0,0,1,.43.41,20.47,20.47,0,0,1,.31,3.56,19.35,19.35,0,0,1-.31,3.54.49.49,0,0,1-.43.41l-3.82.43a2.44,2.44,0,0,0-1.93,1.52h0l0,0a2.4,2.4,0,0,0,.3,2.44l2.38,3a.5.5,0,0,1,0,.6,20.55,20.55,0,0,1-5,5,.51.51,0,0,1-.6,0l-3-2.38a2.44,2.44,0,0,0-2.45-.3l-.05,0a2.43,2.43,0,0,0-1.5,1.93l-.44,3.82a.49.49,0,0,1-.41.43A20.36,20.36,0,0,1,375.7,204.25Zm-3-1.23a20.18,20.18,0,0,0,6,0l.4-3.44a3.4,3.4,0,0,1,2.13-2.75l0,0a3.43,3.43,0,0,1,3.43.44l2.71,2.15a19.21,19.21,0,0,0,4.24-4.25l-2.14-2.71a3.37,3.37,0,0,1-.45-3.42h0a.08.08,0,0,1,0,0,3.43,3.43,0,0,1,2.75-2.14l3.44-.39a19.5,19.5,0,0,0,.23-3,20.58,20.58,0,0,0-.23-3l-3.44-.39a3.42,3.42,0,0,1-2.75-2.13.19.19,0,0,1,0-.07h0a3.37,3.37,0,0,1,.45-3.41l2.15-2.7a19.25,19.25,0,0,0-4.25-4.25l-2.71,2.14a3.45,3.45,0,0,1-3.43.45l0,0a3.42,3.42,0,0,1-2.13-2.76l-.4-3.44a20.18,20.18,0,0,0-6,0l-.4,3.45a3.41,3.41,0,0,1-2.13,2.75l0,0a3.47,3.47,0,0,1-3.44-.45l-2.7-2.14a19,19,0,0,0-4.25,4.25l2.15,2.7a3.46,3.46,0,0,1,.45,3.41h0l0,.07a3.45,3.45,0,0,1-2.74,2.13l-3.46.4a19.74,19.74,0,0,0-.22,3,19.48,19.48,0,0,0,.22,3l3.46.4A3.44,3.44,0,0,1,362.3,189s0,0,0,0h0a3.38,3.38,0,0,1-.44,3.42l-2.15,2.72A19,19,0,0,0,364,199.4l2.7-2.15a3.43,3.43,0,0,1,3.43-.44l.05,0a3.4,3.4,0,0,1,2.13,2.75Zm16.86-13.84h0Z" style="fill:#407BFF"></path><path d="M375.7,171.34a12.09,12.09,0,1,0,12.08,12.1A12.11,12.11,0,0,0,375.7,171.34Zm0,23.18a11.09,11.09,0,1,1,11.08-11.08A11.09,11.09,0,0,1,375.7,194.52Z" style="fill:#407BFF"></path><path d="M374.2,183.43a1.5,1.5,0,1,1,1.5,1.5A1.5,1.5,0,0,1,374.2,183.43Z" style="fill:#455a64"></path><path d="M375.7,183.93a.41.41,0,0,1-.19,0,.49.49,0,0,1-.31-.46V177a.5.5,0,0,1,.5-.5.51.51,0,0,1,.5.5v5.26l2.38-2.38a.5.5,0,0,1,.7,0,.5.5,0,0,1,0,.71l-3.23,3.24A.52.52,0,0,1,375.7,183.93Z" style="fill:#455a64"></path><path d="M375.69,175a.51.51,0,0,1-.5-.5v-.92a.51.51,0,0,1,.5-.5.5.5,0,0,1,.5.5v.92A.5.5,0,0,1,375.69,175Z" style="fill:#407BFF"></path><path d="M371.22,176.18a.51.51,0,0,1-.44-.25l-.45-.79a.5.5,0,1,1,.86-.5l.46.79a.5.5,0,0,1-.18.68A.47.47,0,0,1,371.22,176.18Z" style="fill:#407BFF"></path><path d="M367.94,179.46a.45.45,0,0,1-.25-.07l-.79-.45a.51.51,0,0,1-.18-.69.49.49,0,0,1,.68-.18l.79.45a.51.51,0,0,1,.18.69A.5.5,0,0,1,367.94,179.46Z" style="fill:#407BFF"></path><path d="M366.74,183.94h-.91a.5.5,0,0,1-.5-.5.5.5,0,0,1,.5-.5h.91a.5.5,0,0,1,.5.5A.5.5,0,0,1,366.74,183.94Z" style="fill:#407BFF"></path><path d="M367.15,188.87a.5.5,0,0,1-.25-.93l.79-.46a.5.5,0,1,1,.5.87l-.79.45A.45.45,0,0,1,367.15,188.87Z" style="fill:#407BFF"></path><path d="M370.77,192.48a.45.45,0,0,1-.25-.07.51.51,0,0,1-.19-.68l.46-.79a.5.5,0,0,1,.68-.18.51.51,0,0,1,.19.68l-.46.79A.5.5,0,0,1,370.77,192.48Z" style="fill:#407BFF"></path><path d="M375.7,193.8a.5.5,0,0,1-.5-.5v-.91a.5.5,0,0,1,.5-.5.5.5,0,0,1,.5.5v.91A.5.5,0,0,1,375.7,193.8Z" style="fill:#407BFF"></path><path d="M380.63,192.48a.5.5,0,0,1-.43-.25l-.45-.79a.51.51,0,0,1,.18-.69.49.49,0,0,1,.68.19l.46.79a.5.5,0,0,1-.19.68A.52.52,0,0,1,380.63,192.48Z" style="fill:#407BFF"></path><path d="M384.24,188.86a.47.47,0,0,1-.25-.07l-.79-.45a.5.5,0,0,1,.5-.87l.79.46a.5.5,0,0,1-.25.93Z" style="fill:#407BFF"></path><path d="M385.56,183.93h-.91a.51.51,0,0,1-.5-.5.5.5,0,0,1,.5-.5h.91a.5.5,0,0,1,.5.5A.5.5,0,0,1,385.56,183.93Z" style="fill:#407BFF"></path><path d="M383.45,179.45a.5.5,0,0,1-.25-.93l.79-.46a.49.49,0,0,1,.68.18.51.51,0,0,1-.18.69l-.79.45A.47.47,0,0,1,383.45,179.45Z" style="fill:#407BFF"></path><path d="M380.17,176.17a.57.57,0,0,1-.25-.06.51.51,0,0,1-.18-.69l.45-.79a.51.51,0,0,1,.69-.18.49.49,0,0,1,.18.68l-.46.79A.5.5,0,0,1,380.17,176.17Z" style="fill:#407BFF"></path></g></g></svg>